<svg xmlns="http://www.w3.org/2000/svg" width="1071" height="928" viewBox="0 0 1071 928"><g fill="none" fill-rule="evenodd" stroke-dasharray="2 2"><path stroke="#96C" stroke-linecap="round" stroke-linejoin="round" stroke-width=".25" d="M1070.659 463.753L936.857 695.508m-802.81 0L.247 463.753m133.802 231.755l71.09-123.14 62.71-108.615 133.803 231.755m0 0l133.802-231.755 133.802 231.755m267.602 0L803.055 927.252M401.65 695.508h267.604M267.849 927.252l-133.8-231.744H276.36"/><path stroke="#96C" stroke-linecap="round" stroke-linejoin="round" stroke-width=".25" d="M464.352 804.104l71.101 123.147H267.849l93.765-162.404"/><path stroke="#96C" stroke-linecap="round" stroke-linejoin="round" stroke-width=".25" d="M669.254 695.508l40.037 69.35 93.764 162.394H535.452l71.1-123.148M134.048 231.998L267.848.256m535.207 0l133.802 231.743M803.055.254l-93.764 162.394-40.037 69.35-62.702-108.595L535.452.254h267.603z"/><path stroke="#96C" stroke-linecap="round" stroke-linejoin="round" stroke-width=".25" d="M535.453.254l-71.101 123.15-62.701 108.594-40.037-69.34L267.849.254h267.604zm133.801 695.254l133.801-231.755 62.712 108.627 71.09 123.128H669.254zM267.85 463.753H.246l133.802-231.754m401.405 231.754H267.849m535.206 0H535.452m401.405-231.754l133.802 231.754H803.055M936.857 231.999l-71.09 123.128-62.712 108.625-133.801-231.754h267.603zM669.254 231.999L535.452 463.752 401.65 231.999h267.604z"/><path stroke="#96C" stroke-linecap="round" stroke-linejoin="round" stroke-width=".25" d="M401.65 231.999L267.85 463.752l-62.711-108.615-71.09-123.14H401.65z"/><path stroke="#639" stroke-linecap="round" stroke-linejoin="round" stroke-width=".25" d="M188 463.626c0-37.938 6.073-74.445 17.312-108.616 15.12-46.048 39.615-87.835 71.222-123.138 24.486-27.368 53.253-50.835 85.253-69.341a344.982 344.982 0 0 1 102.737-39.255c22.953-4.765 46.728-7.276 71.101-7.276 24.372 0 48.147 2.511 71.1 7.276a345.114 345.114 0 0 1 102.738 39.245 349.02 349.02 0 0 1 85.263 69.351c31.596 35.292 56.082 77.09 71.211 123.128 11.24 34.171 17.313 70.688 17.313 108.626s-6.073 74.456-17.313 108.626c-15.129 46.039-39.615 87.836-71.211 123.129a349.016 349.016 0 0 1-85.263 69.35 345.116 345.116 0 0 1-102.738 39.246c-22.953 4.764-46.728 7.276-71.1 7.276-24.373 0-48.148-2.512-71.1-7.276a344.984 344.984 0 0 1-102.738-39.256c-32-18.506-60.767-41.972-85.253-69.34-31.607-35.303-56.102-77.09-71.222-123.139C194.073 538.071 188 501.564 188 463.626z"/><g stroke="#96C" stroke-width=".5"><path d="M594.719 808.062C405.86 840.966 226.19 713.933 193.417 524.327c-32.773-189.606 93.757-369.986 282.617-402.889 188.858-32.904 368.527 94.129 401.3 283.735 32.776 189.606-93.757 369.986-282.615 402.889z"/><path d="M593.58 807.79c-46.737 12.61-100.361-17.778-146.31-91.985-81.325-131.34-107.807-350.215-59.148-488.869 21.167-60.315 53.067-95.515 89.051-105.225"/><path d="M197.032 387.105C235.142 219.72 417.52 118.791 604.38 161.673c186.863 42.882 307.45 213.337 269.34 380.722"/><path d="M280.644 228.087c102.13-110.8 298.972-94.666 439.657 36.04 140.686 130.705 171.94 326.484 69.807 437.285"/><path d="M827.492 276.59c70.045 109.606-3.955 282.703-165.286 386.621-161.33 103.92-348.9 99.306-418.946-10.3"/><path d="M643.059 133.502c103.676 33.97 139.51 209.813 80.04 392.756-59.472 182.943-191.73 303.71-295.405 269.74"/><path d="M211.793 590.753c-31.967-82.746 86.99-206.238 265.7-275.828 178.71-69.59 349.497-58.924 381.465 23.821"/><path d="M481.34 808.755c-66.925-10.556-97.062-173.226-67.313-363.333 29.75-190.108 108.12-335.664 175.046-325.108"/><path d="M826.402 274.894c25.658 39.643-83.839 156.781-244.568 261.635C421.106 641.384 270.01 694.248 244.35 654.606"/><path d="M878.654 413.385c3.897 26.25-146.635 70.526-336.222 98.894-189.588 28.368-346.438 30.086-350.334 3.836"/></g></g></svg>